<svg xmlns="http://www.w3.org/2000/svg" xmlns:xlink="http://www.w3.org/1999/xlink" aria-hidden="true" role="img" class="iconify iconify--icon-park-outline" width="38" height="38" preserveAspectRatio="xMidYMid meet" viewBox="0 0 48 36"><g fill="currentColor" fill-rule="evenodd" clip-rule="evenodd"><path d="M16.871 33.044l-.873 11.66c-.062.819.667 1.383 1.318 1.018c4.613-2.584 19.062-12.074 26.386-32.932c.336-.957-.567-1.82-1.337-1.28c-4.326 3.029-13.78 9.29-19.623 10.483c0 0 3.742-2.598 5.981-6.588c.22-.39.201-.891-.043-1.244L20.513 2.389c-.484-.698-1.478-.408-1.652.481l-2.543 12.937L4.384 26.223c-.598.522-.476 1.577.215 1.856l12.272 4.965z"></path><path d="M37.974 28.448c-.755 1.055-2.383 3.224-3.886 4.55c-.3.264-.26.709.084.925l7.943 4.986c.478.3 1.123-.056 1.043-.577c-.37-2.382-1.434-7.35-4.125-9.958c-.3-.291-.819-.26-1.059.074z"></path></g></svg>